<?xml version="1.0" encoding="utf-8"?>
<!-- Generator: Adobe Illustrator 13.0.0, SVG Export Plug-In . SVG Version: 6.00 Build 14948)  -->
<!DOCTYPE svg PUBLIC "-//W3C//DTD SVG 1.1//EN" "http://www.w3.org/Graphics/SVG/1.1/DTD/svg11.dtd">
<svg version="1.1" id="Layer_1" xmlns="http://www.w3.org/2000/svg" xmlns:xlink="http://www.w3.org/1999/xlink" x="0px" y="0px"
	 width="260px" height="46px" viewBox="0 0 260 46" enable-background="new 0 0 260 46" xml:space="preserve">
<path display="none" fill="#FFFFFF" d="M0,0h260v46H0V0z"/>
<path fill="#FFB81C" d="M37.3,15.06c1.02-1.05,1.85-1.4,3.02-1.39c6.53,0,7.35,6.96,8.88,13.811c1.5,6.709,3.24,13.6,9.14,16.449
	c0.74,0.36,1.52,0.541,2.29,0.58c0.25,0.01,0.36-0.3,0.16-0.439c-1.48-1.11-2.99-2.95-3.8-5.32c-3.27-9.529,1.84-22.22-4.07-31.71
	c-1.3-2.09-4.78-5.53-10.67-5.53c-9.53,0.46-10.87,8.23-10.24,10.53c0.2,0.72,0.73,2.15,0.65,2.94c-0.07,0.79-1.12,3.75,0.06,4.14
	C33.93,19.52,34.49,17.97,37.3,15.06z"/>
<path fill="#00A9E0" d="M21.86,15.06c1.02-1.05,1.85-1.4,3.02-1.39c6.53,0,7.35,6.96,8.88,13.811c1.5,6.709,3.24,13.6,9.14,16.449
	c0.74,0.36,1.52,0.541,2.29,0.58c0.25,0.01,0.36-0.3,0.16-0.439c-1.48-1.11-2.99-2.95-3.8-5.32c-3.27-9.529,1.84-22.22-4.07-31.71
	C36.18,4.93,32.7,1.5,26.81,1.5c-9.53,0.46-10.87,8.23-10.24,10.53c0.2,0.72,0.73,2.15,0.65,2.94c-0.08,0.79-1.12,3.75,0.06,4.14
	C18.49,19.52,19.05,17.97,21.86,15.06z"/>
<path d="M84.74,8.69l9.75,24.35l9.75-24.35h5.1v29.85h-3.93V26.92l0.37-12.54l-9.79,24.17h-3.01L83.2,14.43l0.39,12.48v11.619h-3.93
	V8.69H84.74z M115.17,10.48c0-0.61,0.19-1.13,0.56-1.56c0.38-0.42,0.93-0.64,1.67-0.64c0.74,0,1.3,0.21,1.68,0.64
	c0.38,0.42,0.57,0.94,0.57,1.56c0,0.61-0.19,1.13-0.57,1.54s-0.94,0.61-1.68,0.61c-0.74,0-1.29-0.21-1.67-0.61
	C115.36,11.6,115.17,11.09,115.17,10.48z M119.27,38.54h-3.79V16.36h3.79V38.54z M128.4,16.36l0.12,2.79
	c1.69-2.13,3.91-3.2,6.64-3.2c4.68,0,7.05,2.64,7.09,7.93v14.66h-3.79V23.859c-0.01-1.6-0.38-2.779-1.101-3.549
	c-0.719-0.77-1.83-1.15-3.35-1.15c-1.23,0-2.31,0.33-3.24,0.98c-0.93,0.66-1.649,1.52-2.169,2.58V38.52h-3.79V16.36H128.4
	L128.4,16.36z M146.6,27.26c0-3.4,0.811-6.14,2.42-8.21c1.61-2.07,3.721-3.11,6.33-3.11c2.59,0,4.65,0.89,6.17,2.66V8.62l3.791-1.57
	v31.49h-3.48l-0.18-2.38c-1.521,1.859-3.631,2.79-6.33,2.79c-2.57,0-4.66-1.05-6.28-3.16c-1.62-2.101-2.431-4.851-2.431-8.24v-0.29
	H146.6z M150.391,27.689c0,2.511,0.52,4.48,1.56,5.9s2.47,2.131,4.3,2.131c2.4,0,4.16-1.08,5.26-3.24V22.3
	c-1.13-2.09-2.869-3.14-5.22-3.14c-1.86,0-3.3,0.72-4.34,2.15C150.91,22.75,150.391,24.88,150.391,27.689z M179.95,38.95
	c-3,0-5.45-0.99-7.33-2.96c-1.88-1.971-2.83-4.62-2.83-7.92v-0.7c0-2.2,0.42-4.16,1.26-5.89c0.841-1.73,2.011-3.08,3.521-4.06
	s3.14-1.47,4.91-1.47c2.879,0,5.119,0.95,6.72,2.85c1.6,1.9,2.399,4.62,2.399,8.16v1.58h-15.01c0.051,2.19,0.689,3.95,1.92,5.3
	c1.221,1.35,2.78,2.02,4.66,2.02c1.34,0,2.471-0.27,3.4-0.819s1.74-1.271,2.439-2.17l2.311,1.8
	C186.45,37.52,183.67,38.95,179.95,38.95z M179.48,19.06c-1.53,0-2.811,0.56-3.851,1.67s-1.68,2.68-1.93,4.68h11.1v-0.29
	c-0.11-1.93-0.63-3.42-1.56-4.48C182.32,19.59,181.07,19.06,179.48,19.06L179.48,19.06z M203.561,19.76
	c-0.57-0.1-1.201-0.14-1.86-0.14c-2.49,0-4.171,1.06-5.06,3.18v15.74h-3.791V16.36h3.69l0.06,2.56c1.24-1.98,3-2.97,5.28-2.97
	c0.74,0,1.3,0.1,1.681,0.29V19.76z M215.529,38.95c-3,0-5.449-0.99-7.329-2.96c-1.88-1.971-2.83-4.62-2.83-7.92v-0.7
	c0-2.2,0.42-4.16,1.26-5.89c0.841-1.73,2.011-3.08,3.521-4.06s3.14-1.47,4.91-1.47c2.879,0,5.119,0.95,6.719,2.85
	c1.601,1.9,2.4,4.62,2.4,8.16v1.58h-15.01c0.051,2.19,0.689,3.95,1.92,5.3c1.221,1.35,2.78,2.02,4.66,2.02
	c1.34,0,2.471-0.27,3.4-0.819s1.74-1.271,2.439-2.17l2.311,1.8C222.029,37.52,219.25,38.95,215.529,38.95z M215.061,19.06
	c-1.531,0-2.811,0.56-3.851,1.67s-1.681,2.68-1.931,4.68h11.101v-0.29c-0.11-1.93-0.63-3.42-1.56-4.48
	C217.9,19.59,216.65,19.06,215.061,19.06L215.061,19.06z M240.91,32.65c0-1.021-0.391-1.82-1.16-2.391s-2.12-1.06-4.04-1.47
	s-3.44-0.899-4.569-1.479c-1.131-0.57-1.961-1.261-2.5-2.051c-0.541-0.789-0.811-1.74-0.811-2.83c0-1.82,0.77-3.35,2.3-4.61
	c1.54-1.26,3.5-1.89,5.89-1.89c2.51,0,4.551,0.65,6.11,1.95c1.56,1.3,2.351,2.96,2.351,4.98h-3.811c0-1.04-0.439-1.93-1.32-2.69
	c-0.879-0.75-1.99-1.13-3.33-1.13c-1.379,0-2.459,0.3-3.24,0.9c-0.779,0.6-1.17,1.39-1.17,2.36c0,0.92,0.361,1.61,1.091,2.07
	c0.72,0.46,2.03,0.909,3.92,1.33c1.89,0.42,3.42,0.93,4.601,1.521c1.17,0.59,2.039,1.289,2.609,2.119s0.85,1.83,0.85,3.02
	c0,1.98-0.789,3.57-2.38,4.771c-1.579,1.2-3.64,1.79-6.17,1.79c-1.78,0-3.351-0.311-4.71-0.939c-1.37-0.631-2.43-1.51-3.21-2.631
	c-0.771-1.129-1.16-2.35-1.16-3.66h3.79c0.07,1.271,0.58,2.281,1.53,3.021c0.95,0.74,2.2,1.12,3.76,1.12
	c1.431,0,2.58-0.29,3.45-0.87C240.48,34.4,240.91,33.63,240.91,32.65L240.91,32.65z M254.76,10.99v5.37h4.141v2.93h-4.141v13.771
	c0,0.89,0.18,1.56,0.551,2c0.369,0.439,1,0.67,1.879,0.67c0.44,0,1.041-0.08,1.801-0.25v3.06c-1,0.271-1.971,0.41-2.91,0.41
	c-1.689,0-2.971-0.511-3.83-1.54c-0.859-1.02-1.29-2.48-1.29-4.37V19.29h-4.03v-2.93h4.03v-3.8L254.76,10.99z"/>
<path fill="#003A70" d="M6.42,15.06c1.02-1.05,1.85-1.4,3.02-1.39c6.53,0,7.35,6.96,8.88,13.811c1.5,6.709,3.24,13.6,9.14,16.449
	c0.74,0.36,1.52,0.541,2.29,0.58c0.25,0.01,0.36-0.3,0.16-0.439c-1.48-1.11-2.99-2.95-3.8-5.32c-3.27-9.529,1.84-22.22-4.07-31.71
	c-1.3-2.09-4.78-5.53-10.67-5.53C1.84,1.96,0.5,9.73,1.13,12.03c0.2,0.72,0.73,2.15,0.65,2.94c-0.07,0.79-1.12,3.75,0.06,4.14
	C3.05,19.52,3.61,17.97,6.42,15.06z"/>
</svg>
