<svg version="1.1" id="Layer_1" xmlns="http://www.w3.org/2000/svg" x="0" y="0" width="260" height="47" xml:space="preserve"><style>.st0{fill:#fff}</style><path class="st0" d="M84.74 9.19l9.75 24.35 9.75-24.35h5.1v29.85h-3.93V27.42l.37-12.54-9.79 24.17h-3.01L83.2 14.93l.39 12.48v11.62h-3.93V9.19h5.08zM115.17 10.98c0-.61.19-1.13.56-1.56.38-.42.93-.64 1.67-.64.74 0 1.3.21 1.68.64.38.42.57.94.57 1.56 0 .61-.19 1.13-.57 1.54-.38.41-.94.61-1.68.61s-1.29-.21-1.67-.61c-.37-.42-.56-.93-.56-1.54zm4.1 28.06h-3.79V16.86h3.79v22.18zM128.4 16.86l.12 2.79c1.69-2.13 3.91-3.2 6.64-3.2 4.68 0 7.05 2.64 7.09 7.93v14.66h-3.79V24.36c-.01-1.6-.38-2.78-1.1-3.55-.72-.77-1.83-1.15-3.35-1.15-1.23 0-2.31.33-3.24.98-.93.66-1.65 1.52-2.17 2.58v15.8h-3.79V16.86h3.59zM146.6 27.76c0-3.4.81-6.14 2.42-8.21 1.61-2.07 3.72-3.11 6.33-3.11 2.59 0 4.65.89 6.17 2.66V9.12l3.79-1.57v31.48h-3.48l-.18-2.38c-1.52 1.86-3.63 2.79-6.33 2.79-2.57 0-4.66-1.05-6.28-3.16-1.62-2.1-2.43-4.85-2.43-8.24v-.28zm3.79.43c0 2.51.52 4.48 1.56 5.9s2.47 2.13 4.3 2.13c2.4 0 4.16-1.08 5.26-3.24V22.8c-1.13-2.09-2.87-3.14-5.22-3.14-1.86 0-3.3.72-4.34 2.15-1.04 1.44-1.56 3.57-1.56 6.38zM179.95 39.45c-3 0-5.45-.99-7.33-2.96s-2.83-4.62-2.83-7.92v-.7c0-2.2.42-4.16 1.26-5.89.84-1.73 2.01-3.08 3.52-4.06 1.51-.98 3.14-1.47 4.91-1.47 2.88 0 5.12.95 6.72 2.85 1.6 1.9 2.4 4.62 2.4 8.16v1.58h-15.01c.05 2.19.69 3.95 1.92 5.3 1.22 1.35 2.78 2.02 4.66 2.02 1.34 0 2.47-.27 3.4-.82.93-.55 1.74-1.27 2.44-2.17l2.31 1.8c-1.87 2.85-4.65 4.28-8.37 4.28zm-.47-19.89c-1.53 0-2.81.56-3.85 1.67-1.04 1.11-1.68 2.68-1.93 4.68h11.1v-.29c-.11-1.93-.63-3.42-1.56-4.48-.92-1.05-2.17-1.58-3.76-1.58zM203.56 20.26c-.57-.1-1.2-.14-1.86-.14-2.49 0-4.17 1.06-5.06 3.18v15.74h-3.79V16.86h3.69l.06 2.56c1.24-1.98 3-2.97 5.28-2.97.74 0 1.3.1 1.68.29v3.52zM215.53 39.45c-3 0-5.45-.99-7.33-2.96s-2.83-4.62-2.83-7.92v-.7c0-2.2.42-4.16 1.26-5.89.84-1.73 2.01-3.08 3.52-4.06 1.51-.98 3.14-1.47 4.91-1.47 2.88 0 5.12.95 6.72 2.85 1.6 1.9 2.4 4.62 2.4 8.16v1.58h-15.01c.05 2.19.69 3.95 1.92 5.3 1.22 1.35 2.78 2.02 4.66 2.02 1.34 0 2.47-.27 3.4-.82.93-.55 1.74-1.27 2.44-2.17l2.31 1.8c-1.87 2.85-4.65 4.28-8.37 4.28zm-.47-19.89c-1.53 0-2.81.56-3.85 1.67-1.04 1.11-1.68 2.68-1.93 4.68h11.1v-.29c-.11-1.93-.63-3.42-1.56-4.48-.92-1.05-2.17-1.58-3.76-1.58zM240.91 33.15c0-1.02-.39-1.82-1.16-2.39-.77-.57-2.12-1.06-4.04-1.47-1.92-.41-3.44-.9-4.57-1.48s-1.96-1.26-2.5-2.05c-.54-.79-.81-1.74-.81-2.83 0-1.82.77-3.35 2.3-4.61 1.54-1.26 3.5-1.89 5.89-1.89 2.51 0 4.55.65 6.11 1.95 1.56 1.3 2.35 2.96 2.35 4.98h-3.81c0-1.04-.44-1.93-1.32-2.69-.88-.75-1.99-1.13-3.33-1.13-1.38 0-2.46.3-3.24.9-.78.6-1.17 1.39-1.17 2.36 0 .92.36 1.61 1.09 2.07.72.46 2.03.91 3.92 1.33 1.89.42 3.42.93 4.6 1.52 1.17.59 2.04 1.29 2.61 2.12.57.83.85 1.83.85 3.02 0 1.98-.79 3.57-2.38 4.77-1.58 1.2-3.64 1.79-6.17 1.79-1.78 0-3.35-.31-4.71-.94-1.37-.63-2.43-1.51-3.21-2.63-.77-1.13-1.16-2.35-1.16-3.66h3.79c.07 1.27.58 2.28 1.53 3.02.95.74 2.2 1.12 3.76 1.12 1.43 0 2.58-.29 3.45-.87.9-.56 1.33-1.33 1.33-2.31zM254.76 11.49v5.37h4.14v2.93h-4.14v13.77c0 .89.18 1.56.55 2 .37.44 1 .67 1.88.67.44 0 1.04-.08 1.8-.25v3.06c-1 .27-1.97.41-2.91.41-1.69 0-2.97-.51-3.83-1.54-.86-1.02-1.29-2.48-1.29-4.37V19.79h-4.03v-2.93h4.03v-3.8l3.8-1.57zM11.37 2c5.88 0 9.37 3.43 10.67 5.53 5.91 9.49.8 22.18 4.07 31.71.81 2.37 2.32 4.21 3.8 5.32.2.14.09.44-.15.44h-.01c-.78-.04-1.56-.22-2.29-.58-5.9-2.85-7.64-9.74-9.14-16.45-1.53-6.85-2.35-13.81-8.88-13.81H9.4c-1.15 0-1.97.36-2.98 1.39-2.52 2.61-3.23 4.12-4.22 4.12-.11 0-.23-.02-.36-.06-1.18-.39-.13-3.35-.06-4.14.07-.79-.46-2.23-.65-2.94C.5 10.23 1.84 2.46 11.37 2M60.8 44.56c-1.48-1.11-2.99-2.95-3.8-5.32-3.27-9.53 1.84-22.22-4.07-31.71C51.62 5.43 48.14 2 42.26 2c-2.46.12-4.37.73-5.85 1.6 1.1.93 1.98 1.96 2.61 2.97 1.53 2.46 2.38 5.07 2.83 7.76 5.13 1.03 5.95 7.37 7.35 13.64 1.5 6.71 3.24 13.6 9.14 16.45.74.36 1.52.54 2.29.58.25.01.37-.3.17-.44z"/><path class="st0" d="M45.36 44.56c-1.48-1.11-2.99-2.95-3.8-5.32-3.27-9.53 1.84-22.22-4.07-31.71C36.18 5.43 32.7 2 26.81 2c-2.46.12-4.37.73-5.85 1.6 1.1.93 1.98 1.96 2.61 2.97 1.53 2.46 2.38 5.07 2.83 7.76 5.13 1.03 5.95 7.37 7.35 13.64 1.5 6.71 3.24 13.6 9.14 16.45.74.36 1.52.54 2.29.58h.01c.26 0 .36-.3.17-.44z"/></svg>